<svg width="177" height="24" viewBox="0 0 177 24" fill="none" xmlns="http://www.w3.org/2000/svg">
<path d="M-0.01 14.63C-0.01 12.95 0.32 11.46 0.98 10.16C1.66 8.86 2.58 7.86 3.74 7.16C4.9 6.46 6.19 6.11 7.61 6.11C8.69 6.11 9.72 6.35 10.7 6.83C11.68 7.29 12.46 7.91 13.04 8.69V0.8H17.3V23H13.04V20.54C12.52 21.36 11.79 22.02 10.85 22.52C9.91 23.02 8.82 23.27 7.58 23.27C6.18 23.27 4.9 22.91 3.74 22.19C2.58 21.47 1.66 20.46 0.98 19.16C0.32 17.84 -0.01 16.33 -0.01 14.63ZM13.07 14.69C13.07 13.67 12.87 12.8 12.47 12.08C12.07 11.34 11.53 10.78 10.85 10.4C10.17 10 9.44 9.8 8.66 9.8C7.88 9.8 7.16 9.99 6.5 10.37C5.84 10.75 5.3 11.31 4.88 12.05C4.48 12.77 4.28 13.63 4.28 14.63C4.28 15.63 4.48 16.51 4.88 17.27C5.3 18.01 5.84 18.58 6.5 18.98C7.18 19.38 7.9 19.58 8.66 19.58C9.44 19.58 10.17 19.39 10.85 19.01C11.53 18.61 12.07 18.05 12.47 17.33C12.87 16.59 13.07 15.71 13.07 14.69ZM36.852 14.33C36.852 14.93 36.812 15.47 36.732 15.95H24.582C24.682 17.15 25.102 18.09 25.842 18.77C26.582 19.45 27.492 19.79 28.572 19.79C30.132 19.79 31.242 19.12 31.902 17.78H36.432C35.952 19.38 35.032 20.7 33.672 21.74C32.312 22.76 30.642 23.27 28.662 23.27C27.062 23.27 25.622 22.92 24.342 22.22C23.082 21.5 22.092 20.49 21.372 19.19C20.672 17.89 20.322 16.39 20.322 14.69C20.322 12.97 20.672 11.46 21.372 10.16C22.072 8.86 23.052 7.86 24.312 7.16C25.572 6.46 27.022 6.11 28.662 6.11C30.242 6.11 31.652 6.45 32.892 7.13C34.152 7.81 35.122 8.78 35.802 10.04C36.502 11.28 36.852 12.71 36.852 14.33ZM32.502 13.13C32.482 12.05 32.092 11.19 31.332 10.55C30.572 9.89 29.642 9.56 28.542 9.56C27.502 9.56 26.622 9.88 25.902 10.52C25.202 11.14 24.772 12.01 24.612 13.13H32.502ZM46.2777 23.27C44.9177 23.27 43.6977 23.03 42.6177 22.55C41.5377 22.05 40.6777 21.38 40.0377 20.54C39.4177 19.7 39.0777 18.77 39.0177 17.75H43.2477C43.3277 18.39 43.6377 18.92 44.1777 19.34C44.7377 19.76 45.4277 19.97 46.2477 19.97C47.0477 19.97 47.6677 19.81 48.1077 19.49C48.5677 19.17 48.7977 18.76 48.7977 18.26C48.7977 17.72 48.5177 17.32 47.9577 17.06C47.4177 16.78 46.5477 16.48 45.3477 16.16C44.1077 15.86 43.0877 15.55 42.2877 15.23C41.5077 14.91 40.8277 14.42 40.2477 13.76C39.6877 13.1 39.4077 12.21 39.4077 11.09C39.4077 10.17 39.6677 9.33 40.1877 8.57C40.7277 7.81 41.4877 7.21 42.4677 6.77C43.4677 6.33 44.6377 6.11 45.9777 6.11C47.9577 6.11 49.5377 6.61 50.7177 7.61C51.8977 8.59 52.5477 9.92 52.6677 11.6H48.6477C48.5877 10.94 48.3077 10.42 47.8077 10.04C47.3277 9.64 46.6777 9.44 45.8577 9.44C45.0977 9.44 44.5077 9.58 44.0877 9.86C43.6877 10.14 43.4877 10.53 43.4877 11.03C43.4877 11.59 43.7677 12.02 44.3277 12.32C44.8877 12.6 45.7577 12.89 46.9377 13.19C48.1377 13.49 49.1277 13.8 49.9077 14.12C50.6877 14.44 51.3577 14.94 51.9177 15.62C52.4977 16.28 52.7977 17.16 52.8177 18.26C52.8177 19.22 52.5477 20.08 52.0077 20.84C51.4877 21.6 50.7277 22.2 49.7277 22.64C48.7477 23.06 47.5977 23.27 46.2777 23.27ZM66.1053 23L60.4653 15.92V23H56.2653V0.8H60.4653V13.43L66.0453 6.38H71.5053L64.1853 14.72L71.5653 23H66.1053ZM72.7048 14.69C72.7048 12.97 73.0548 11.47 73.7548 10.19C74.4548 8.89 75.4248 7.89 76.6648 7.19C77.9048 6.47 79.3248 6.11 80.9248 6.11C82.9848 6.11 84.6848 6.63 86.0248 7.67C87.3848 8.69 88.2948 10.13 88.7548 11.99H84.2248C83.9848 11.27 83.5748 10.71 82.9948 10.31C82.4348 9.89 81.7348 9.68 80.8948 9.68C79.6948 9.68 78.7448 10.12 78.0448 11C77.3448 11.86 76.9948 13.09 76.9948 14.69C76.9948 16.27 77.3448 17.5 78.0448 18.38C78.7448 19.24 79.6948 19.67 80.8948 19.67C82.5948 19.67 83.7048 18.91 84.2248 17.39H88.7548C88.2948 19.19 87.3848 20.62 86.0248 21.68C84.6648 22.74 82.9648 23.27 80.9248 23.27C79.3248 23.27 77.9048 22.92 76.6648 22.22C75.4248 21.5 74.4548 20.5 73.7548 19.22C73.0548 17.92 72.7048 16.41 72.7048 14.69ZM101.192 6.14C102.452 6.14 103.572 6.42 104.552 6.98C105.532 7.52 106.292 8.33 106.832 9.41C107.392 10.47 107.672 11.75 107.672 13.25V23H103.472V13.82C103.472 12.5 103.142 11.49 102.482 10.79C101.822 10.07 100.922 9.71 99.7817 9.71C98.6217 9.71 97.7017 10.07 97.0217 10.79C96.3617 11.49 96.0317 12.5 96.0317 13.82V23H91.8317V0.8H96.0317V8.45C96.5717 7.73 97.2917 7.17 98.1917 6.77C99.0917 6.35 100.092 6.14 101.192 6.14ZM110.586 14.63C110.586 12.95 110.916 11.46 111.576 10.16C112.256 8.86 113.166 7.86 114.306 7.16C115.466 6.46 116.756 6.11 118.176 6.11C119.416 6.11 120.496 6.36 121.416 6.86C122.356 7.36 123.106 7.99 123.666 8.75V6.38H127.896V23H123.666V20.57C123.126 21.35 122.376 22 121.416 22.52C120.476 23.02 119.386 23.27 118.146 23.27C116.746 23.27 115.466 22.91 114.306 22.19C113.166 21.47 112.256 20.46 111.576 19.16C110.916 17.84 110.586 16.33 110.586 14.63ZM123.666 14.69C123.666 13.67 123.466 12.8 123.066 12.08C122.666 11.34 122.126 10.78 121.446 10.4C120.766 10 120.036 9.8 119.256 9.8C118.476 9.8 117.756 9.99 117.096 10.37C116.436 10.75 115.896 11.31 115.476 12.05C115.076 12.77 114.876 13.63 114.876 14.63C114.876 15.63 115.076 16.51 115.476 17.27C115.896 18.01 116.436 18.58 117.096 18.98C117.776 19.38 118.496 19.58 119.256 19.58C120.036 19.58 120.766 19.39 121.446 19.01C122.126 18.61 122.666 18.05 123.066 17.33C123.466 16.59 123.666 15.71 123.666 14.69ZM138.358 23.27C136.998 23.27 135.778 23.03 134.698 22.55C133.618 22.05 132.758 21.38 132.118 20.54C131.498 19.7 131.158 18.77 131.098 17.75H135.328C135.408 18.39 135.718 18.92 136.258 19.34C136.818 19.76 137.508 19.97 138.328 19.97C139.128 19.97 139.748 19.81 140.188 19.49C140.648 19.17 140.878 18.76 140.878 18.26C140.878 17.72 140.598 17.32 140.038 17.06C139.498 16.78 138.628 16.48 137.428 16.16C136.188 15.86 135.168 15.55 134.368 15.23C133.588 14.91 132.908 14.42 132.328 13.76C131.768 13.1 131.488 12.21 131.488 11.09C131.488 10.17 131.748 9.33 132.268 8.57C132.808 7.81 133.568 7.21 134.548 6.77C135.548 6.33 136.718 6.11 138.058 6.11C140.038 6.11 141.618 6.61 142.798 7.61C143.978 8.59 144.628 9.92 144.748 11.6H140.728C140.668 10.94 140.388 10.42 139.888 10.04C139.408 9.64 138.758 9.44 137.938 9.44C137.178 9.44 136.588 9.58 136.168 9.86C135.768 10.14 135.568 10.53 135.568 11.03C135.568 11.59 135.848 12.02 136.408 12.32C136.968 12.6 137.838 12.89 139.018 13.19C140.218 13.49 141.208 13.8 141.988 14.12C142.768 14.44 143.438 14.94 143.998 15.62C144.578 16.28 144.878 17.16 144.898 18.26C144.898 19.22 144.628 20.08 144.088 20.84C143.568 21.6 142.808 22.2 141.808 22.64C140.828 23.06 139.678 23.27 138.358 23.27ZM163.795 14.33C163.795 14.93 163.755 15.47 163.675 15.95H151.525C151.625 17.15 152.045 18.09 152.785 18.77C153.525 19.45 154.435 19.79 155.515 19.79C157.075 19.79 158.185 19.12 158.845 17.78H163.375C162.895 19.38 161.975 20.7 160.615 21.74C159.255 22.76 157.585 23.27 155.605 23.27C154.005 23.27 152.565 22.92 151.285 22.22C150.025 21.5 149.035 20.49 148.315 19.19C147.615 17.89 147.265 16.39 147.265 14.69C147.265 12.97 147.615 11.46 148.315 10.16C149.015 8.86 149.995 7.86 151.255 7.16C152.515 6.46 153.965 6.11 155.605 6.11C157.185 6.11 158.595 6.45 159.835 7.13C161.095 7.81 162.065 8.78 162.745 10.04C163.445 11.28 163.795 12.71 163.795 14.33ZM159.445 13.13C159.425 12.05 159.035 11.19 158.275 10.55C157.515 9.89 156.585 9.56 155.485 9.56C154.445 9.56 153.565 9.88 152.845 10.52C152.145 11.14 151.715 12.01 151.555 13.13H159.445ZM171.061 8.96C171.601 8.08 172.301 7.39 173.161 6.89C174.041 6.39 175.041 6.14 176.161 6.14V10.55H175.051C173.731 10.55 172.731 10.86 172.051 11.48C171.391 12.1 171.061 13.18 171.061 14.72V23H166.861V6.38H171.061V8.96Z" fill="#292929"/>
</svg>
