<svg width="45" height="45" viewBox="0 0 45 45" fill="none" xmlns="http://www.w3.org/2000/svg">
<path d="M11.25 14H33.75C34.4375 14 35 14.5885 35 15.3077C35 16.0269 34.4375 16.6154 33.75 16.6154V31H31.25V28.3846H26.25V31H23.75V16.6154H13.75V31H11.25V16.6154C10.5625 16.6154 10 16.0269 10 15.3077C10 14.5885 10.5625 14 11.25 14ZM27.5 19.8846V20.5385H30V19.8846C30 19.5185 29.725 19.2308 29.375 19.2308H28.125C27.775 19.2308 27.5 19.5185 27.5 19.8846ZM27.5 25.1154V25.7692H30V25.1154C30 24.7492 29.725 24.4615 29.375 24.4615H28.125C27.775 24.4615 27.5 24.7492 27.5 25.1154Z" fill="#292929"/>
</svg>
